<svg width="160" height="120" viewBox="0 0 160 120" fill="none" xmlns="http://www.w3.org/2000/svg">
<g clip-path="url(#clip0_7832_38032)">
<path d="M0 12C0 5.37259 5.37258 0 12 0H148C154.627 0 160 5.37258 160 12V108C160 114.627 154.627 120 148 120H12C5.37258 120 0 114.627 0 108V12Z" fill="#D9F7F9"/>
<mask id="mask0_7832_38032" style="mask-type:luminance" maskUnits="userSpaceOnUse" x="10" y="25" width="140" height="96">
<path d="M136.103 120.122C151.07 108.591 157.984 76.55 133.607 61.0282C117.424 50.726 107.361 56.6029 89.1546 49.7869C66.9302 41.4684 63.6161 16.3369 36.583 28.7051C22.2624 35.255 12.3319 53.7114 10.5868 74.6915C8.88087 95.1668 16.7494 110.47 31.5317 120.122H136.1H136.103Z" fill="white"/>
</mask>
<g mask="url(#mask0_7832_38032)">
<path d="M32.0523 120.326C32.4044 120.255 32.7644 120.22 33.1244 120.22H136.092C151.066 108.693 157.984 76.6438 133.607 61.1181C117.424 50.8158 107.361 56.6927 89.1548 49.8768C66.9304 41.5583 63.6163 16.4268 36.5832 28.7949C22.2626 35.3449 12.3321 53.8012 10.587 74.7813C8.87323 95.3271 16.8043 110.665 31.6845 120.31C31.8097 120.314 31.931 120.318 32.0523 120.326Z" fill="#D1F1F2"/>
<g style="mix-blend-mode:luminosity" opacity="0.5">
<path d="M7.25337 94.1367L72.9639 94.1367L72.9639 33.9667L7.25337 33.9667L7.25337 94.1367Z" fill="url(#paint0_linear_7832_38032)"/>
<path fill-rule="evenodd" clip-rule="evenodd" d="M72.9676 41.678H66.4999V53.1111H60.1182V59.4575H48.4739V45.0234H44.1621V40.3125H38.7312V45.09H34.7637V57.3799H26.6565V63.6011V89.8751H72.9676V41.678Z" fill="#C3D7D5"/>
<path fill-rule="evenodd" clip-rule="evenodd" d="M85.1286 57.1104H64.485L50.6848 66.3288H55.0827V81.8272H44.4518V70.9693H31.575V61.4809H24.1134V45.3018H35.4173L23.9412 37.6328H7.25732V94.1405H85.1286V57.1104Z" fill="#B3C2C0"/>
<path d="M86.0793 94.1328H11.5847V95.7527H86.0793V94.1328Z" fill="#A1A1A2"/>
<path d="M85.4455 78.4414H7.28076V79.3061H85.4455V78.4414Z" fill="#A1A1A2"/>
<path d="M85.4455 62.7422H7.28076V63.6069H85.4455V62.7422Z" fill="#A1A1A2"/>
<path d="M85.4455 47.043H7.28076V47.9077H85.4455V47.043Z" fill="#A1A1A2"/>
<path d="M86.0793 94.9963V28.8672H84.7216V94.9963H86.0793Z" fill="#A1A1A2"/>
<path d="M45.0662 94.9963L45.0662 28.8672H43.7084L43.7084 94.9963H45.0662Z" fill="#A1A1A2"/>
<path d="M67.6074 94.9963V28.8672H66.2497V94.9963H67.6074Z" fill="#A1A1A2"/>
<path d="M22.5208 94.9963L22.5208 28.8672H21.163L21.163 94.9963H22.5208Z" fill="#A1A1A2"/>
<path d="M74.2512 28.2344H7.28076V29.5021H74.2512V28.2344Z" fill="#A1A1A2"/>
</g>
<g style="mix-blend-mode:luminosity" opacity="0.7">
<path d="M116.168 91.8984C116.536 91.8984 116.833 92.1997 116.833 92.5675L116.646 163.408C116.646 163.466 116.348 163.509 115.976 163.509C115.605 163.509 115.311 163.462 115.311 163.404L115.499 92.5636C115.499 92.1958 115.8 91.8984 116.168 91.8984Z" fill="#B3C2C0"/>
<path d="M105.432 90.4021L119.173 101.103C119.463 101.326 119.877 101.276 120.1 100.986C120.323 100.697 120.273 100.282 119.983 100.059L106.242 89.3574C105.952 89.1344 105.537 89.1853 105.314 89.4748C105.091 89.7644 105.142 90.1791 105.432 90.4021Z" fill="#B3C2C0"/>
<path d="M105.799 91.1848L105.166 90.6919L106.457 89.0342L107.09 89.527C107.3 89.6905 107.338 89.9925 107.174 90.2024L106.477 91.0977C106.314 91.3076 106.012 91.3452 105.802 91.1817L105.799 91.1848Z" fill="#B3C2C0"/>
<path d="M96.6477 94.1517C95.8925 95.1221 96.4364 96.8084 97.8606 97.9197C99.2888 99.0309 101.057 99.1444 101.813 98.174C102.568 97.2036 102.024 95.5172 100.6 94.406C99.1753 93.2948 97.4029 93.1813 96.6477 94.1517Z" fill="#FFF4F4"/>
<path d="M101.738 89.4698L105.103 92.0914L106.875 89.8181C107.599 88.8868 107.431 87.5487 106.504 86.8248C105.573 86.101 104.234 86.2692 103.511 87.1965L101.738 89.4698Z" fill="#B3C2C0"/>
<path d="M102.223 89.178L105.267 91.5492C105.396 91.647 105.479 91.7918 105.49 91.9365C105.968 97.2578 102.967 100.846 102.967 100.846L98.3692 97.2657L93.7717 93.6855C93.7717 93.6855 96.5146 89.8941 101.789 89.0567C101.934 89.0333 102.094 89.0802 102.219 89.178H102.223Z" fill="#B3C2C0"/>
<path d="M102.787 99.6204C102.842 99.6634 102.92 99.6517 102.959 99.5891L103.119 99.3465C103.158 99.2878 103.143 99.2056 103.088 99.1626C103.033 99.1195 102.955 99.1313 102.916 99.19L102.755 99.4326C102.716 99.4913 102.728 99.5773 102.787 99.6204Z" fill="#B3C2C0"/>
<path d="M102.137 99.1164C102.192 99.1595 102.27 99.1478 102.31 99.0891L102.47 98.8504C102.509 98.7917 102.497 98.7095 102.443 98.6665C102.388 98.6234 102.31 98.6352 102.27 98.6939L102.106 98.9325C102.067 98.9912 102.079 99.0734 102.133 99.1164H102.137Z" fill="#B3C2C0"/>
<path d="M101.488 98.6086C101.543 98.6517 101.621 98.6399 101.664 98.5812L101.828 98.3426C101.867 98.2839 101.856 98.2017 101.801 98.1587C101.746 98.1156 101.668 98.1274 101.629 98.1861L101.464 98.4208C101.425 98.4795 101.437 98.5617 101.492 98.6047L101.488 98.6086Z" fill="#B3C2C0"/>
<path d="M100.842 98.105C100.897 98.148 100.975 98.1363 101.018 98.0776L101.187 97.8428C101.226 97.7841 101.214 97.7059 101.159 97.6628C101.104 97.6198 101.026 97.6315 100.983 97.6863L100.815 97.9211C100.772 97.9798 100.784 98.0619 100.842 98.105Z" fill="#B3C2C0"/>
<path d="M100.193 97.6011C100.247 97.6441 100.33 97.6324 100.369 97.5776L100.541 97.3467C100.584 97.292 100.572 97.2098 100.517 97.1667C100.463 97.1237 100.384 97.1354 100.341 97.1902L100.169 97.4211C100.126 97.4798 100.138 97.558 100.193 97.605V97.6011Z" fill="#B3C2C0"/>
<path d="M99.5433 97.0972C99.598 97.1402 99.6802 97.1285 99.7232 97.0737L99.8954 96.8428C99.9384 96.788 99.9267 96.7059 99.8719 96.6628C99.8171 96.6198 99.7389 96.6315 99.6959 96.6863L99.5198 96.9172C99.4767 96.9719 99.4885 97.0541 99.5433 97.0972Z" fill="#B3C2C0"/>
<path d="M98.8938 96.5932C98.9486 96.6363 99.0307 96.6245 99.0738 96.5698L99.2499 96.3428C99.2929 96.288 99.2812 96.2059 99.2264 96.1628C99.1716 96.1198 99.0894 96.1315 99.0464 96.1863L98.8703 96.4133C98.8273 96.468 98.8351 96.5502 98.8938 96.5932Z" fill="#B3C2C0"/>
<path d="M98.2481 96.0869C98.3029 96.13 98.3851 96.1221 98.4281 96.0634L98.6081 95.8365C98.6511 95.7817 98.6433 95.7035 98.5885 95.6604C98.5337 95.6174 98.4516 95.6252 98.4085 95.68L98.2285 95.903C98.1855 95.9578 98.1933 96.04 98.2481 96.083V96.0869Z" fill="#B3C2C0"/>
<path d="M97.5986 95.583C97.6534 95.626 97.7356 95.6182 97.7825 95.5634L97.9664 95.3404C98.0095 95.2856 98.0016 95.2074 97.9469 95.1643C97.8921 95.1213 97.8099 95.1291 97.7669 95.1839L97.583 95.4069C97.536 95.4617 97.5478 95.54 97.6025 95.5869L97.5986 95.583Z" fill="#B3C2C0"/>
<path d="M96.949 95.0791C97.0038 95.1221 97.0859 95.1143 97.1329 95.0595L97.3168 94.8404C97.3637 94.7856 97.352 94.7074 97.2972 94.6643C97.2425 94.6213 97.1603 94.6291 97.1133 94.6839L96.9255 94.903C96.8786 94.9578 96.8864 95.036 96.9451 95.0791H96.949Z" fill="#B3C2C0"/>
<path d="M96.3036 94.5752C96.3583 94.6182 96.4405 94.6104 96.4875 94.5556L96.6753 94.3365C96.7222 94.2817 96.7144 94.2035 96.6596 94.1604C96.6048 94.1174 96.5227 94.1252 96.4757 94.18L96.2879 94.3991C96.241 94.4539 96.2488 94.5321 96.3036 94.5752Z" fill="#B3C2C0"/>
<path d="M95.6539 94.0638C95.7087 94.1068 95.7948 94.099 95.8417 94.0442L96.0334 93.829C96.0804 93.7781 96.0726 93.6999 96.0178 93.6568C95.963 93.6138 95.8808 93.6216 95.8339 93.6725L95.6422 93.8877C95.5952 93.9425 95.603 94.0207 95.6578 94.0638H95.6539Z" fill="#B3C2C0"/>
<path d="M95.0045 93.5599C95.0592 93.6029 95.1453 93.5951 95.1923 93.5442L95.3879 93.329C95.4349 93.2781 95.427 93.1999 95.3723 93.1568C95.3175 93.1138 95.2353 93.1216 95.1844 93.1725L94.9888 93.3838C94.9418 93.4346 94.9458 93.5129 95.0005 93.5559L95.0045 93.5599Z" fill="#B3C2C0"/>
<path d="M115.937 97.7471C115.836 97.8762 115.859 98.064 115.988 98.1657C116.117 98.2674 116.305 98.244 116.407 98.1148C116.509 97.9857 116.485 97.7979 116.356 97.6962C116.227 97.5945 116.039 97.6179 115.937 97.7471Z" fill="#B3C2C0"/>
</g>
<g style="mix-blend-mode:luminosity" opacity="0.7">
<g opacity="0.4">
<path d="M97.172 107.828H90.1995V110.735H97.172V107.828Z" fill="#B3C2C0"/>
<path d="M103.193 112.188H96.2209V115.095H103.193V112.188Z" fill="#B3C2C0"/>
<path d="M92.1009 112.188H85.1284V115.095H92.1009V112.188Z" fill="#B3C2C0"/>
</g>
<g opacity="0.4">
<path d="M130.775 104H123.168V107.169H130.775V104Z" fill="#B3C2C0"/>
<path d="M134.578 108.754H126.971V111.923H134.578V108.754Z" fill="#B3C2C0"/>
</g>
<g opacity="0.4">
<path d="M139.015 80.1367H130.986V83.4821H139.015V80.1367Z" fill="#B3C2C0"/>
<path d="M101.55 81.457H94.9534V84.2038H101.55V81.457Z" fill="#B3C2C0"/>
<path d="M135 85.1562H126.971V88.5016H135V85.1562Z" fill="#B3C2C0"/>
</g>
</g>
</g>
<mask id="mask1_7832_38032" style="mask-type:luminance" maskUnits="userSpaceOnUse" x="78" y="5" width="67" height="66">
<path d="M111.473 5.00392C93.38 5.00392 78.7112 19.6728 78.7112 37.7653C78.7112 44.3778 80.6715 50.5286 84.0403 55.6778L82.0487 63.108C81.7827 64.098 82.6904 65.0018 83.6764 64.7357L90.4768 62.9124C96.162 67.6625 103.483 70.5227 111.469 70.5227C129.561 70.5227 144.23 55.8538 144.23 37.7613C144.23 19.6689 129.561 5 111.469 5L111.473 5.00392Z" fill="white"/>
</mask>
<g mask="url(#mask1_7832_38032)">
<path d="M111.473 5.00392C93.38 5.00392 78.7112 19.6728 78.7112 37.7653C78.7112 44.3778 80.6715 50.5286 84.0403 55.6778L82.0487 63.108C81.7827 64.098 82.6904 65.0018 83.6764 64.7357L90.4768 62.9124C96.162 67.6625 103.483 70.5227 111.469 70.5227C129.561 70.5227 144.23 55.8538 144.23 37.7613C144.23 19.6689 129.561 5 111.469 5L111.473 5.00392Z" fill="#DB5364"/>
<path d="M93.1217 38.5981C93.1217 38.5981 92.9339 37.0056 92.6835 36.2465C92.437 35.4875 91.3923 34.0437 91.3923 34.0437C91.3923 34.0437 90.9737 34.9358 91.5801 35.6753C91.5801 35.6753 91.541 36.853 91.5997 37.2678C91.5997 37.2678 89.6277 35.5814 89.2481 35.4131C89.0055 35.2214 88.7121 34.9866 88.356 34.701C87.0453 33.6563 86.1727 33.9811 86.2862 34.0554C86.3645 34.1063 87.863 35.3192 88.7903 36.0705L88.6691 36.2426C88.3873 36.0196 87.9374 35.6596 87.2761 35.1314C85.9654 34.0867 85.0928 34.4115 85.2063 34.4858C85.3002 34.5484 87.4952 36.3248 88.2074 36.9039L87.9961 37.2052C87.7183 36.9821 87.2566 36.6143 86.5523 36.0548C85.2415 35.0101 84.369 35.3349 84.4824 35.4092C84.5802 35.4757 86.877 37.3343 87.5344 37.8664L87.3113 38.1872C87.0687 37.9642 86.3918 37.3656 85.7384 36.9078C84.9206 36.3404 84.3337 36.6026 84.3337 36.6026L84.6937 36.9234C85.0537 37.2443 86.9318 38.7272 86.9318 38.7272C86.9318 38.7272 89.7998 41.29 90.5198 41.5365L91.2202 42.2056L93.8026 39.4119L93.1178 38.5981H93.1217Z" fill="#FFBF98"/>
<path d="M105.846 56.4494C104.304 58.5584 102.152 59.8613 99.2882 59.3057C91.6193 57.8267 82.5652 43.6861 82.5652 43.6861L83.0191 43.2165L86.3997 39.742L98.1614 49.8956L101.835 44.8442L105.423 39.9142L107.196 37.4766C107.196 37.4766 108.233 39.0377 108.886 43.9952C109.293 47.1019 108.432 52.9084 105.842 56.4494H105.846Z" fill="#ECA973"/>
<path d="M105.846 56.2945C104.304 58.513 102.152 59.8864 99.2882 59.3034C91.6193 57.7461 82.5652 42.8581 82.5652 42.8581L83.0191 42.3651L83.3008 42.2086C83.3008 42.2086 94.0921 57.0536 98.6387 54.8429C101.452 53.4773 101.902 48.0347 101.835 44.0789L105.423 38.8867L105.846 56.2906V56.2945Z" fill="#DB9460"/>
<path d="M134.652 54.8438L133.951 67.1493H131.244L132.308 54.8438H134.652Z" fill="#0858AA"/>
<path d="M118.065 54.8438L117.369 67.1493H114.657L115.722 54.8438H118.065Z" fill="#1D9573"/>
<path d="M134.929 37.2383H113.46C111.327 37.2383 109.598 38.9673 109.598 41.1002V53.1123C109.598 55.2451 111.327 56.9741 113.46 56.9741H134.929C137.062 56.9741 138.791 55.2451 138.791 53.1123V41.1002C138.791 38.9673 137.062 37.2383 134.929 37.2383Z" fill="#01418D"/>
<path d="M133.118 37.2383H111.649C109.516 37.2383 107.787 38.9673 107.787 41.1002V53.1123C107.787 55.2451 109.516 56.9741 111.649 56.9741H133.118C135.251 56.9741 136.98 55.2451 136.98 53.1123V41.1002C136.98 38.9673 135.251 37.2383 133.118 37.2383Z" fill="#2260A9"/>
<path d="M116.939 31.7016C116.939 31.7016 121.172 31.0208 126.869 36.9134L128.184 67.151L104.277 71.6076C104.277 71.6076 101.781 46.7539 104.809 39.4997C107.838 32.2455 113.28 31.3808 116.939 31.7055V31.7016Z" fill="#3FC597"/>
<path d="M108.632 15.3032L109.677 13.8711L118.586 16.8526L118.508 20.198H119.094C120.288 20.198 121.258 21.1684 121.258 22.3617C121.258 23.5551 120.288 24.5255 119.094 24.5255H118.406L118.3 29.0682V33.0592L111.848 33.9473L111.692 31.2789L111.609 29.8742L110.674 29.4281C107.994 28.1487 106.288 25.445 106.288 22.4752C106.288 19.8928 107.11 17.3808 108.628 15.2992L108.632 15.3032Z" fill="#FFBF98"/>
<path d="M111.614 29.8792L111.696 31.2839C111.934 31.2565 112.181 31.2174 112.439 31.1704C116.422 30.4426 117.983 26.8429 117.823 24.9883C117.823 24.9883 116.481 29.4488 111.614 29.8792Z" fill="#FF9B6F"/>
<path d="M119.165 21.7433C118.997 21.8686 118.844 22.0368 118.789 22.2442C118.789 22.2442 119.122 22.3537 119.153 22.7294C119.184 23.1011 118.789 23.2654 118.789 23.2654C118.789 23.2654 119.091 23.7701 119.595 23.4962C120.1 23.2224 120.014 22.2755 119.513 22.0759C119.513 22.0759 120.311 21.9859 120.601 22.2794C120.601 22.2794 120.667 21.9859 120.335 21.7277C119.991 21.4616 119.509 21.4851 119.161 21.7473L119.165 21.7433Z" fill="#FF9B6F"/>
<path d="M108.632 15.3019C108.632 15.3019 109.837 17.3796 111.398 18.0526C112.955 18.7256 114.622 17.7474 116.183 18.6395C117.745 19.5316 116.747 21.2023 117.099 22.0084C117.447 22.8105 117.835 22.92 117.835 22.92C117.835 22.92 118.046 20.635 118.511 20.2046C118.511 20.2046 119.912 20.1929 120.347 20.5998C120.347 20.5998 121.129 19.019 121.262 17.7826C121.395 16.5462 120.026 16.1432 120.026 16.1432C120.026 16.1432 119.705 13.1851 116.074 12.0857C112.447 10.9823 109.676 12.7313 108.225 12.0857C106.773 11.4401 105.455 12.4104 105.376 13.8738C105.294 15.3371 106.292 15.8771 106.292 15.8771C106.292 15.8771 105.619 16.4444 105.889 17.317C106.159 18.1895 107 18.393 107 18.393C107 18.393 107.994 16.1823 108.632 15.3098V15.3019Z" fill="#00000B"/>
<path d="M109.356 25.9261L113.049 25.7461C113.049 25.7461 112.192 27.0764 110.976 27.0647C109.853 27.053 109.352 25.93 109.352 25.93L109.356 25.9261Z" fill="white"/>
<path d="M113.601 19.9122C113.554 19.9122 113.507 19.8965 113.468 19.8652C112.689 19.2235 111.923 19.7674 111.915 19.7752C111.821 19.8417 111.692 19.8222 111.625 19.7283C111.559 19.6344 111.578 19.5052 111.672 19.4387C112.028 19.1805 112.916 18.8675 113.738 19.5444C113.828 19.6187 113.84 19.7478 113.765 19.8378C113.726 19.8887 113.664 19.9122 113.605 19.9122H113.601Z" fill="#00000B"/>
<path d="M109.008 19.9122C108.961 19.9122 108.914 19.8965 108.875 19.8652C108.096 19.2235 107.329 19.7674 107.321 19.7752C107.227 19.8417 107.098 19.8222 107.032 19.7283C106.965 19.6344 106.985 19.5052 107.079 19.4387C107.435 19.1805 108.323 18.8675 109.145 19.5444C109.235 19.6187 109.246 19.7478 109.172 19.8378C109.133 19.8887 109.07 19.9122 109.012 19.9122H109.008Z" fill="#00000B"/>
<path d="M119.49 32.0103L118.32 30.4883L113.675 32.1238L112.924 33.4267L112.415 32.2529L111.711 31.4821L110.979 32.8946C110.979 32.8946 111.003 34.311 112.791 34.6866C114.583 35.0623 118.496 33.6028 119.49 32.0064V32.0103Z" fill="#008380"/>
<path d="M120.347 20.597C120.347 20.597 119.627 20.3231 118.938 20.9531C118.253 21.583 118.484 22.2012 118.484 22.2012C118.484 22.2012 118.801 21.4539 119.478 21.5361C120.155 21.6182 120.652 23.4494 119.744 23.7937C118.836 24.138 117.678 23.6137 117.721 22.2012C117.76 20.7887 118.281 19.9905 119.134 19.8692C119.987 19.7479 120.327 20.464 120.347 20.597Z" fill="#01418D"/>
<path d="M113.934 27.6983C113.848 27.6983 113.769 27.6357 113.75 27.5457C113.73 27.444 113.797 27.3462 113.898 27.3266C117.412 26.6497 118.602 23.3434 118.613 23.3082C118.649 23.2104 118.754 23.1595 118.852 23.1948C118.95 23.23 119.001 23.3356 118.965 23.4334C118.954 23.4687 117.698 26.9784 113.969 27.6944C113.957 27.6944 113.945 27.6944 113.934 27.6944V27.6983Z" fill="#01418D"/>
<path d="M113.151 27.5755C113.151 28.0098 113.503 28.362 113.938 28.362C114.372 28.362 114.724 28.0098 114.724 27.5755C114.724 27.1412 114.372 26.7891 113.938 26.7891C113.503 26.7891 113.151 27.1412 113.151 27.5755Z" fill="#012E5E"/>
<path d="M119.392 21.8719C119.392 21.8719 119.294 22.7406 119.482 23.2062C119.674 23.6718 119.971 23.4292 120.03 22.8658C120.088 22.3023 119.525 21.512 119.392 21.8719Z" fill="#012E5E"/>
<path d="M111.919 21.5833C111.919 21.5833 111.919 22.3932 112.983 22.5263C114.043 22.6593 114.239 21.5833 114.239 21.5833C114.239 21.5833 113.636 21.0199 112.858 21.0003C112.079 20.9847 111.923 21.5833 111.923 21.5833H111.919Z" fill="white"/>
<path d="M107.071 21.5833C107.071 21.5833 107.071 22.3932 108.112 22.5263C109.148 22.6593 109.289 21.5833 109.289 21.5833C109.289 21.5833 108.749 21.016 107.986 21.0003C107.223 20.9847 107.071 21.5833 107.071 21.5833Z" fill="white"/>
<path d="M109.289 21.5788C109.289 21.5788 108.734 20.9684 108.139 20.8589C107.544 20.7493 107.137 21.0389 107.075 21.5788C107.075 21.5788 107.192 21.1328 107.787 21.078C108.382 21.0232 109.289 21.5788 109.289 21.5788Z" fill="#00000B"/>
<path d="M114.235 21.5796C114.235 21.5796 113.656 20.9418 113.034 20.8284C112.412 20.7149 111.985 21.0162 111.919 21.5796C111.919 21.5796 112.044 21.114 112.662 21.0553C113.284 20.9966 114.235 21.5796 114.235 21.5796Z" fill="#00000B"/>
<path d="M110.306 21.6055L109.837 24.4305C109.825 24.5087 109.759 24.5635 109.68 24.5596C109.594 24.5557 109.473 24.54 109.32 24.5087C109.094 24.4579 108.98 24.1957 109.086 23.9883C109.45 23.2879 110.197 21.8559 110.303 21.6094L110.306 21.6055Z" fill="#FF9B6F"/>
<path d="M95.7471 74.8421C95.7471 74.8421 95.6688 71.2776 98.3217 70.1625C100.978 69.0473 104.214 72.3106 104.731 74.8421H95.7432H95.7471Z" fill="#1D9573"/>
<path d="M112.936 22.6317C113.303 22.6317 113.601 22.2551 113.601 21.7905C113.601 21.3259 113.303 20.9492 112.936 20.9492C112.569 20.9492 112.271 21.3259 112.271 21.7905C112.271 22.2551 112.569 22.6317 112.936 22.6317Z" fill="#00000B"/>
<path d="M108.937 21.8138C108.937 22.2638 108.647 22.6277 108.287 22.6277C107.927 22.6277 107.638 22.2638 107.638 21.8138C107.638 21.3639 107.927 21 108.287 21C108.647 21 108.937 21.3639 108.937 21.8138Z" fill="#00000B"/>
<path d="M133.407 64.6447C132.734 67.1019 131.506 68.9604 130.05 70.2751C129.056 71.1672 127.961 71.805 126.865 72.208C122.295 73.8905 105.369 73.7614 105.369 73.7614L106.006 67.5519L124.96 62.3792C124.96 62.3792 122.506 52.9339 122.616 45.304C122.714 38.2024 124.459 35.2757 126.423 36.6569C126.572 36.7625 126.72 36.8877 126.865 37.0403C126.865 37.0403 129.858 42.4556 132.946 53.5795C134.209 58.13 134.186 61.7884 133.407 64.6447Z" fill="#009B99"/>
<path d="M104.081 68.1408L100.059 67.0335C100.059 67.0335 99.3194 66.8417 98.5799 67.3269C97.8404 67.8082 97.0031 70.1636 97.0031 70.1636C97.0031 70.1636 97.6839 70.1793 98.1417 69.5533C98.5995 68.9272 98.6621 68.3834 98.6621 68.3834L100.137 68.5555L100.165 69.072C99.6716 69.2363 98.2708 69.7176 97.5861 70.1636C96.7488 70.7075 96.3066 72.3665 96.3066 72.3665C96.3066 72.3665 97.4061 72.1239 97.9656 71.0988L100.251 70.7075L100.266 71.0284C99.7968 71.0753 98.9556 71.2357 98.1652 71.76C96.9875 72.5465 96.6275 73.6029 96.6275 73.6029C96.6275 73.6029 97.8052 73.6029 98.6347 72.6365L99.1942 72.5661C98.6425 73.1021 98.1652 74.3855 98.1652 74.3855C98.1652 74.3855 98.4039 74.4755 98.9438 74.1155C99.4838 73.7516 99.6246 73.3408 99.6246 73.3408L101.198 73.5169C102.015 73.6929 103.248 73.8651 103.952 73.509L105.455 73.8573L105.928 68.1368H104.085L104.081 68.1408Z" fill="#FFBF98"/>
<path d="M109.242 65.2502H74.818C73.6559 65.2502 72.6503 64.3777 72.4038 63.1491L67.955 41.2886C67.7359 40.2165 68.4911 39.1992 69.5045 39.1992H104.316C105.345 39.1992 106.237 39.9739 106.456 41.0617L110.921 62.9926C111.156 64.1507 110.342 65.2502 109.242 65.2502Z" fill="#01418D"/>
<path d="M80.4601 61.5489C80.1745 63.1139 78.4842 64.0726 76.6843 63.6852C74.8884 63.2978 73.6637 61.7171 73.9493 60.1481C74.2349 58.583 75.9252 57.6244 77.7251 58.0117C79.521 58.3991 80.7457 59.9798 80.4601 61.5489Z" fill="#6BCAA9"/>
<path d="M110.921 62.9926L106.456 41.0617C106.233 39.9739 105.345 39.1992 104.316 39.1992H102.309C103.338 39.1992 104.23 39.9739 104.449 41.0617L108.914 62.9926C109.148 64.1507 108.334 65.2502 107.235 65.2502H109.242C110.342 65.2502 111.156 64.1507 110.921 62.9926Z" fill="#01418D"/>
<path d="M104.962 71.1008C104.962 71.5782 104.598 71.9655 104.152 71.9655H75.5731C75.1153 71.9655 74.6966 71.766 74.3992 71.4451C74.098 71.1243 73.9102 70.6861 73.9102 70.1931C73.9102 69.8448 74.008 69.5044 74.1919 69.211L81.2661 57.9305C81.4696 57.6136 81.8021 57.4219 82.1621 57.4219H94.5303C94.9724 57.4219 95.2541 57.9344 95.0272 58.3414L89.0564 69.3244C88.8333 69.7313 89.1111 70.2361 89.5494 70.2361H104.152C104.375 70.2361 104.578 70.3339 104.727 70.4904C104.872 70.6469 104.962 70.8621 104.962 71.1008Z" fill="#012E5E"/>
<path d="M96.4789 52.0755H78.9459C78.7425 52.0755 78.5781 51.8956 78.5781 51.6764C78.5781 51.4573 78.7425 51.2773 78.9459 51.2773H96.4789C96.6824 51.2773 96.8467 51.4573 96.8467 51.6764C96.8467 51.8956 96.6824 52.0755 96.4789 52.0755Z" fill="#012E5E"/>
<path d="M97.3239 54.474H79.7909C79.5874 54.474 79.4231 54.294 79.4231 54.0749C79.4231 53.8558 79.5874 53.6758 79.7909 53.6758H97.3239C97.5273 53.6758 97.6917 53.8558 97.6917 54.0749C97.6917 54.294 97.5273 54.474 97.3239 54.474Z" fill="#012E5E"/>
<path d="M68.3151 40.4982H105.443C105.744 40.4982 106.034 40.5569 106.304 40.6665C105.971 39.794 105.177 39.2031 104.281 39.2031H69.4694C68.6986 39.2031 68.0764 39.794 67.9199 40.5452C68.049 40.5139 68.1821 40.4982 68.319 40.4982H68.3151Z" fill="#2260A9"/>
<path d="M106.456 61.5489C106.171 63.1139 104.48 64.0726 102.681 63.6852C100.885 63.2978 99.66 61.7171 99.9456 60.1481C100.231 58.583 101.922 57.6244 103.721 58.0117C105.517 58.3991 106.742 59.9798 106.456 61.5489Z" fill="#2260A9"/>
<path d="M104.962 71.1634C104.93 71.6212 104.543 71.9655 104.109 71.9655H87.8435C87.1862 71.9655 86.6541 71.3982 86.6541 70.7017C86.6541 70.463 86.7167 70.2283 86.838 70.0248L94.3113 57.4258H94.5265C94.9686 57.4258 95.2503 57.9384 95.0234 58.3453L89.0526 69.3283C88.8295 69.7353 89.1073 70.24 89.5456 70.24H104.148C104.371 70.24 104.574 70.3378 104.723 70.4943C104.88 70.6626 104.973 70.9012 104.958 71.1673L104.962 71.1634Z" fill="#022446"/>
<path d="M126.865 72.2035C122.295 73.8859 105.369 73.7568 105.369 73.7568L127.237 66.6904C129.522 65.9509 130.981 63.2355 130.61 60.3948C129.647 53.0585 127.789 39.8921 126.423 36.6484C126.572 36.7541 126.72 36.8793 126.865 37.0319C126.865 37.0319 129.858 42.4471 132.946 53.571C136.033 64.6988 131.435 70.5171 126.865 72.1996V72.2035Z" fill="#008380"/>
<path d="M131.243 60.3713C131.216 60.3713 131.193 60.3635 131.169 60.3439C128.688 58.0785 125.609 58.098 125.578 58.098C125.515 58.0902 125.468 58.0511 125.468 57.9885C125.468 57.9298 125.515 57.8789 125.578 57.8789C125.613 57.8789 128.778 57.8593 131.318 60.1835C131.361 60.2226 131.365 60.2931 131.326 60.34C131.302 60.3635 131.275 60.3752 131.243 60.3752V60.3713Z" fill="#008380"/>
<path d="M125.175 36.4699C125.144 36.4699 125.112 36.4582 125.093 36.4308C123.109 34.0832 119.04 32.6785 119.001 32.6668C118.942 32.6472 118.915 32.5846 118.934 32.5259C118.954 32.4672 119.016 32.4398 119.071 32.4594C119.114 32.475 123.238 33.8954 125.261 36.29C125.3 36.3369 125.292 36.4034 125.249 36.4426C125.23 36.4582 125.202 36.4699 125.179 36.4699H125.175Z" fill="#008380"/>
<path d="M113.491 35.7711C113.339 35.7711 113.19 35.7632 113.038 35.7515C111.723 35.6419 110.835 35.2428 110.397 34.5659C109.888 33.7795 110.185 32.9226 110.201 32.8835C110.22 32.8248 110.283 32.7974 110.342 32.8169C110.4 32.8365 110.428 32.8991 110.408 32.9578C110.408 32.9656 110.134 33.756 110.584 34.4486C110.983 35.0668 111.817 35.4307 113.057 35.5324C116.575 35.8219 120.499 32.3513 120.538 32.3161C120.585 32.277 120.652 32.2809 120.695 32.3239C120.734 32.3709 120.73 32.4374 120.687 32.4765C120.531 32.6174 116.97 35.7632 113.495 35.7632L113.491 35.7711Z" fill="#008380"/>
<path d="M105.373 68.1406L104.528 73.6458L105.451 73.861L105.924 68.1406H105.373Z" fill="#FE7349"/>
<path d="M110.976 45.7318C110.976 45.7318 110.968 45.7318 110.964 45.7318C110.905 45.7279 110.858 45.6731 110.866 45.6105C111.602 37.8046 112.674 34.6822 112.686 34.6548C112.705 34.5961 112.768 34.5687 112.826 34.5883C112.885 34.6079 112.912 34.6705 112.893 34.7292C112.881 34.7605 111.817 37.8593 111.085 45.6339C111.081 45.6887 111.03 45.7318 110.976 45.7318Z" fill="#008380"/>
<path d="M116.489 16.4694C116.446 16.4694 116.403 16.442 116.387 16.399C116.364 16.3442 116.395 16.2777 116.45 16.2581C117.987 15.6673 119.654 16.0508 119.725 16.0664C119.783 16.0821 119.819 16.1407 119.807 16.1994C119.791 16.2581 119.732 16.2973 119.674 16.2816C119.658 16.2777 118.003 15.8982 116.528 16.4655C116.516 16.4694 116.5 16.4733 116.489 16.4733V16.4694Z" fill="#262626"/>
<path d="M111.586 18.2318C111.586 18.2318 111.578 18.2318 111.574 18.2318C108.385 17.8719 108.522 15.3208 108.526 15.2934C108.53 15.2347 108.581 15.1877 108.644 15.1916C108.702 15.1955 108.749 15.2464 108.745 15.309C108.737 15.4068 108.624 17.6762 111.602 18.0127C111.66 18.0205 111.703 18.0753 111.699 18.134C111.692 18.1888 111.645 18.2318 111.59 18.2318H111.586Z" fill="#262626"/>
<path d="M120.026 16.2554C120.026 16.2554 119.991 16.2554 119.975 16.2436C119.92 16.2162 119.901 16.1497 119.928 16.0949C120.218 15.5315 119.877 14.6003 119.873 14.5885C119.854 14.5337 119.881 14.4672 119.94 14.4477C119.998 14.4281 120.061 14.4555 120.081 14.5142C120.096 14.5572 120.456 15.5471 120.124 16.1967C120.104 16.2358 120.065 16.2554 120.026 16.2554Z" fill="#262626"/>
<path d="M107.247 15.7664C107.247 15.7664 107.219 15.7664 107.208 15.7586C105.599 15.1404 105.729 13.5518 105.729 13.5362C105.732 13.4775 105.787 13.4305 105.846 13.4384C105.905 13.4423 105.952 13.497 105.944 13.5557C105.94 13.6144 105.83 14.9956 107.282 15.5551C107.337 15.5786 107.368 15.6412 107.345 15.696C107.329 15.739 107.286 15.7664 107.243 15.7664H107.247Z" fill="#262626"/>
<path d="M107.184 18.0966C107.184 18.0966 107.153 18.0966 107.137 18.0849C105.999 17.5645 106.292 16.3476 106.292 16.3359C106.308 16.2772 106.366 16.242 106.425 16.2576C106.484 16.2733 106.519 16.332 106.503 16.3907C106.492 16.4337 106.253 17.4432 107.227 17.8853C107.282 17.9088 107.305 17.9753 107.282 18.0301C107.262 18.0692 107.223 18.0927 107.184 18.0927V18.0966Z" fill="#262626"/>
<path d="M119.032 15.5771C118.981 15.5771 118.934 15.538 118.922 15.4871C118.922 15.4715 118.648 14.0942 116.183 12.9869C113.429 11.7505 111.457 12.58 111.437 12.5878C111.383 12.6113 111.316 12.5878 111.293 12.533C111.269 12.4783 111.293 12.4117 111.347 12.3883C111.429 12.353 113.421 11.5079 116.27 12.7874C118.852 13.9494 119.126 15.3893 119.134 15.448C119.145 15.5067 119.102 15.5654 119.044 15.5732C119.036 15.5732 119.032 15.5732 119.024 15.5732L119.032 15.5771Z" fill="#262626"/>
<path d="M120.155 19.567C120.155 19.567 120.124 19.567 120.108 19.5553C120.053 19.5279 120.03 19.4653 120.057 19.4105C120.057 19.4027 120.433 18.6084 120.433 17.8454C120.433 17.1333 119.952 16.8907 119.932 16.879C119.877 16.8516 119.854 16.789 119.881 16.7342C119.908 16.6794 119.971 16.656 120.026 16.6834C120.053 16.6951 120.652 16.9885 120.652 17.8454C120.652 18.6593 120.272 19.4692 120.257 19.5044C120.237 19.5436 120.198 19.567 120.159 19.567H120.155Z" fill="#262626"/>
<path d="M117.451 20.2275C117.451 20.2275 117.432 20.2275 117.424 20.2275C117.365 20.2118 117.33 20.1531 117.346 20.0945C117.353 20.0632 117.533 19.3158 116.946 18.6194C116.375 17.9424 115.687 17.9072 113.648 17.8055L113.315 17.7899C110.948 17.6686 110.514 16.5926 110.498 16.5456C110.479 16.4908 110.506 16.4243 110.561 16.4047C110.616 16.3852 110.678 16.4126 110.702 16.4673C110.702 16.4673 111.116 17.4573 113.327 17.5707L113.66 17.5864C115.769 17.692 116.481 17.7272 117.115 18.4746C117.776 19.261 117.569 20.1101 117.561 20.1453C117.549 20.1962 117.502 20.2275 117.455 20.2275H117.451Z" fill="#262626"/>
</g>
<path d="M78.5823 10.7852H98.9286C100.091 10.7852 101.03 11.7281 101.03 12.8863V25.1332C101.03 26.2953 100.087 27.2343 98.9286 27.2343H94.7889L95.6106 29.355C95.8492 29.9693 95.1371 30.5132 94.605 30.1219L90.6727 27.2304H78.5823C77.4203 27.2304 76.4812 26.2874 76.4812 25.1293V12.8824C76.4812 11.7203 77.4242 10.7812 78.5823 10.7812V10.7852Z" fill="#C03952"/>
<path d="M77.8389 10.043H98.1852C99.3472 10.043 100.286 10.9859 100.286 12.1441V24.391C100.286 25.5531 99.3433 26.4921 98.1852 26.4921H94.0455L94.8672 28.6128C95.1058 29.2271 94.3937 29.771 93.8616 29.3797L89.9293 26.4882H77.8389C76.6769 26.4882 75.7378 25.5452 75.7378 24.3871V12.1402C75.7378 10.9781 76.6808 10.0391 77.8389 10.0391V10.043Z" fill="white"/>
<path d="M97.8877 13.4766H78.4258" stroke="#FFC9C5" stroke-width="0.238677" stroke-linecap="round" stroke-linejoin="round"/>
<path d="M97.8877 15.2422H78.4258" stroke="#FFC9C5" stroke-width="0.238677" stroke-linecap="round" stroke-linejoin="round"/>
<path d="M97.8877 17.0078H78.4258" stroke="#FFC9C5" stroke-width="0.238677" stroke-linecap="round" stroke-linejoin="round"/>
<path d="M97.8877 18.7812H78.4258" stroke="#FFC9C5" stroke-width="0.238677" stroke-linecap="round" stroke-linejoin="round"/>
<path d="M97.8877 20.5469H78.4258" stroke="#FFC9C5" stroke-width="0.238677" stroke-linecap="round" stroke-linejoin="round"/>
<path d="M97.8877 22.3164H78.4258" stroke="#FFC9C5" stroke-width="0.238677" stroke-linecap="round" stroke-linejoin="round"/>
<path d="M31.7505 72.9197C31.7622 72.9432 31.774 72.9667 31.7896 72.9902C34.3368 77.6894 32.8069 82.2555 32.5917 82.8424C32.5761 82.8855 32.5682 82.905 32.5682 82.905H32.5956L69.8527 81.8017C69.8527 81.8017 69.8566 81.7938 69.8684 81.7743C70.0914 81.4495 72.2903 77.9828 69.7862 74.8174C69.7862 74.8174 69.7823 74.8174 69.7784 74.8135C69.0506 73.8979 69.2854 72.6889 69.6297 71.3468C70.1383 69.3631 70.8896 67.0819 69.1602 65.0199C69.1602 65.0199 69.1523 65.016 69.1523 65.0121C69.1171 64.973 69.0819 64.9417 69.0584 64.8986C69.0467 64.8791 69.0349 64.8595 69.0232 64.8399C68.4989 63.9205 68.2641 63.1183 68.5263 62.3006C68.5459 62.2301 68.5732 62.1558 68.6045 62.0854C68.675 61.921 68.7337 61.7528 68.7806 61.5845C69.1875 60.1212 68.8041 58.4583 68.3385 57.7814C68.3033 57.7266 68.2681 57.6757 68.2328 57.6249C66.8712 55.5668 67.7164 54.8899 67.3642 53.4813C67.1138 52.4835 66.4212 51.0593 66.5112 48.876C66.6599 45.378 64.8561 43.8716 64.1166 41.657C63.921 41.0701 61.6047 35.3144 58.9753 32.6107C56.9485 30.5292 55.1643 28.9093 53.204 28.0015C49.0291 26.0726 44.7838 26.7182 41.1567 28.1346C39.1182 28.9249 37.4161 29.9892 36.0115 31.4721C34.4111 33.1624 33.2021 35.3966 32.3452 38.3898C31.7583 40.4401 31.234 42.8425 31.0618 45.6871C31.0384 46.0627 31.0305 46.4462 31.0305 46.8335C31.0305 49.5842 31.5001 52.5539 30.8858 54.8272C30.8466 54.9798 30.7997 55.1285 30.7488 55.2733C29.9193 57.6405 30.5102 59.3347 31.0736 60.9781C31.6175 62.5588 32.1378 64.1004 31.3357 66.1468C31.234 66.405 31.1088 66.675 30.964 66.9528C29.5085 69.6957 30.7058 71.0377 31.7427 72.9236L31.7505 72.9197Z" fill="#212121"/>
<path d="M47.7186 27.2661C71.9384 28.573 65.0559 74.4263 65.0559 74.4263C65.0559 74.4263 37.5376 85.245 35.3113 78.8712C32.6897 71.3587 23.4987 25.9553 47.7186 27.2661Z" fill="black"/>
<path d="M46.4663 50.6506C44.1539 50.5411 41.7045 50.4433 39.4469 49.8485C39.4704 49.2225 38.6135 48.7334 38.2144 49.379C37.4592 50.5919 37.4944 51.9653 37.424 53.3504C37.3144 55.4476 37.3536 57.5449 37.5531 59.6343C37.9444 63.7192 38.9774 67.7258 40.249 71.6229C40.6207 72.7615 41.0159 73.8962 41.4267 75.027C39.5134 74.8939 37.604 74.7687 35.6907 74.71C35.1194 74.6944 34.5442 74.6827 33.973 74.6709C30.7019 61.3794 26.0732 27.7181 47.8984 28.8645C59.7227 29.4866 63.7019 38.6542 65.2749 49.7116C61.7886 50.0246 58.9245 50.3141 55.4304 50.5293C52.4489 50.7132 49.4596 50.7876 46.4742 50.6467L46.4663 50.6506Z" fill="#212121"/>
<path d="M38.2535 71.8536C37.4671 71.7206 35.855 69.6546 35.3659 70.2885C34.0043 72.0414 21.8709 88.2245 20.0984 90.0478C19.1789 90.9947 18.729 92.2038 17.5669 92.8611L18.2634 98.5346C22.0118 100.197 25.2789 96.9421 31.778 88.8779C33.6169 86.5968 35.3503 84.2257 37.021 81.8037C37.7292 80.7746 38.4296 79.7339 39.1143 78.6892C39.6112 77.9301 40.5229 76.9363 40.7264 76.0363C40.9181 75.1912 40.699 73.7982 40.2451 73.0587C39.8265 72.3779 39.0439 71.9866 38.2574 71.8536H38.2535Z" fill="#FF9E7E"/>
<path d="M70.8115 78.7398C71.6019 78.8493 73.7617 77.3664 74.0395 78.1137C74.8103 80.1953 81.5128 99.2816 82.6514 101.555C83.2422 102.733 83.3088 104.024 84.2204 105.002L81.8454 110.202C77.7683 110.66 75.632 106.575 71.864 96.9262C70.7997 94.199 69.8568 91.4131 68.996 88.6038C68.6282 87.4065 68.276 86.2092 67.9356 85.0001C67.6891 84.1276 67.1218 82.9029 67.1961 81.9873C67.2705 81.1265 67.8965 79.8588 68.5499 79.2915C69.1525 78.7672 70.0172 78.6302 70.8076 78.7398H70.8115Z" fill="#FF9E7E"/>
<path d="M42.9567 69.8576C44.2088 67.6351 43.6062 57.8259 43.6062 57.8259L54.5228 54.4453C54.5228 54.4453 54.1823 66.8487 55.4383 68.3042C55.8844 68.8246 58.7798 69.8224 61.8826 70.3584L62.2152 78.4265H39.9322L39.6191 70.8318C41.1373 70.511 42.6672 70.3662 42.9567 69.8537V69.8576Z" fill="#FF9E7E"/>
<path d="M61.0647 67.8906C61.0647 67.8906 61.1195 67.8828 61.2056 67.875C61.1508 68.0667 61.0647 67.8906 61.0647 67.8906Z" fill="#682116"/>
<path d="M40.5111 70.5996C41.415 73.5577 46.5994 76.4413 50.5121 76.3279C56.076 76.1674 59.7853 73.8237 60.9982 69.8562C65.2631 68.7606 71.2457 68.3068 72.5173 69.8953C74.4072 72.2547 78.8051 87.1231 78.8051 87.1231L65.6348 91.3371L32.6739 90.668L21.1274 83.4334C21.1274 83.4334 23.4986 73.182 25.5606 70.6935C27.5248 68.3224 34.9277 70.0166 40.5072 70.5996H40.5111Z" fill="#01418D"/>
<path d="M68.8081 120.127C68.6594 113.217 68.2681 92.5305 68.7807 89.7876L32.4666 88.2891L36.0506 120.127H68.8041H68.8081Z" fill="#01418D"/>
<path d="M32.7366 90.6723L36.0546 120.127H68.8082C68.6673 113.577 68.3112 94.6398 68.7103 90.3593L69.0312 90.2576L66.6796 83.7077C66.6796 83.7077 66.5309 94.2564 63.2403 95.4419C59.9497 96.6275 40.0339 96.424 38.058 94.7298C36.082 93.0317 33.1905 83.3359 33.1905 83.3359L32.2554 90.5432L32.674 90.6723H32.7327H32.7366Z" fill="#003B79"/>
<path d="M59.4958 37.9132C60.6501 42.2212 61.0687 47.0182 60.6579 51.4709C60.3918 54.3467 59.5506 57.25 57.7585 59.4333C55.9313 61.6636 53.3684 64.1755 50.6295 64.379C47.9884 64.5707 45.1713 62.8022 43.0662 60.9475C40.8477 58.9912 39.4704 55.9862 38.6213 53.0438C37.338 48.6028 37.1267 43.755 37.6549 39.1614C38.6448 30.573 53.4311 23.264 59.4958 37.9172V37.9132Z" fill="#FF9E7E"/>
<path d="M50.6492 65.0606C50.5044 65.0723 50.3596 65.0762 50.2148 65.0762C48.012 65.0762 45.4843 63.7733 43.7471 62.4625C43.7471 62.1378 43.7432 61.8169 43.7354 61.5117C45.41 62.8186 48.2428 64.5519 50.5944 64.3797C51.8191 64.2898 53.1337 63.6833 54.5189 62.5721C54.511 62.8538 54.5071 63.1472 54.5071 63.4524C53.1729 64.4345 51.8934 64.9667 50.6452 65.0606H50.6492Z" fill="#F77B5F"/>
<path d="M53.1182 44.5477C54.828 43.82 56.3344 44.5673 57.1365 45.2833C57.3204 45.4477 57.3087 45.7333 57.1209 45.8859L57.1131 45.8937C56.9644 46.015 56.7453 46.015 56.6044 45.8859C56.1192 45.4555 54.9298 44.6338 53.4351 45.2794C53.2512 45.3577 53.0399 45.2912 52.9382 45.119C52.8169 44.9116 52.903 44.6416 53.126 44.5516L53.1182 44.5477Z" fill="#24252C"/>
<path d="M46.1573 43.2418C46.3882 43.3083 46.5055 43.5626 46.4116 43.7817C46.3334 43.9656 46.126 44.0595 45.9382 44.0009C44.3731 43.5392 43.2932 44.4939 42.8667 44.979C42.7376 45.1238 42.5263 45.1512 42.362 45.0495L42.3502 45.0416C42.1428 44.9086 42.1037 44.623 42.2641 44.4391C42.9763 43.637 44.377 42.7175 46.1612 43.2379L46.1573 43.2418Z" fill="#24252C"/>
<path d="M52.9459 52.0389C53.0594 51.9724 53.1181 51.8785 53.1337 51.7454C53.255 50.7751 51.1734 48.5057 50.3596 47.7114L50.6491 47.4297C50.9621 47.7349 53.705 50.4542 53.5367 51.7885C53.5054 52.0389 53.3724 52.2423 53.1572 52.3715C52.4686 52.7784 51.5373 52.9388 50.7509 52.9936C49.9214 53.0523 49.2523 52.9936 49.2014 52.9858L49.2405 52.5906C49.264 52.5906 51.6508 52.8019 52.9459 52.0311V52.0389Z" fill="#F77B5F"/>
<path d="M38.2964 50.0751C38.2964 50.0751 41.8883 51.8123 39.1025 54.2421C36.3205 56.6759 33.0925 51.425 34.9002 48.1891C36.7079 44.9533 38.2964 50.0751 38.2964 50.0751Z" fill="#FF9E7E"/>
<path d="M38.0618 52.7018L37.6706 52.8075C37.6627 52.7762 36.8019 49.7634 35.6633 49.1021L35.8707 48.7617C37.1502 49.5012 38.0227 52.5688 38.0618 52.7018Z" fill="#F77B5F"/>
<path d="M37.514 51.2275L37.3067 51.5718C37.3067 51.5718 36.215 51.0671 35.8276 51.0631V50.668C36.6063 50.6719 37.4749 51.204 37.514 51.2275Z" fill="#F77B5F"/>
<path d="M54.2136 47.5879C54.2136 48.2374 54.7614 48.7656 55.4383 48.7656C56.1152 48.7656 56.663 48.2374 56.663 47.5879C56.663 46.9384 56.1152 46.4102 55.4383 46.4102C54.7614 46.4102 54.2136 46.9384 54.2136 47.5879Z" fill="#24252C"/>
<path d="M43.6062 47.8614C43.6062 48.5501 44.154 49.1057 44.8309 49.1057C45.5078 49.1057 46.0556 48.5462 46.0556 47.8614C46.0556 47.1728 45.5078 46.6172 44.8309 46.6172C44.154 46.6172 43.6062 47.1767 43.6062 47.8614Z" fill="#24252C"/>
<path d="M46.9045 57.0103C48.6457 55.6996 51.8189 56.2708 52.8284 56.4978C53.0045 56.5369 53.1845 56.4313 53.2314 56.2552C53.2823 56.0635 53.1727 55.8717 52.981 55.8287C51.8893 55.5783 48.497 54.964 46.5015 56.4508C46.3372 56.5721 46.3137 56.8108 46.4546 56.9595C46.5719 57.0847 46.7637 57.1082 46.9006 57.0064L46.9045 57.0103Z" fill="#F77B5F"/>
<path d="M49.577 57.7422L50.3283 57.6522C50.5161 57.6287 50.6491 57.4605 50.6257 57.2726C50.6022 57.0848 50.4339 56.9479 50.2461 56.9714L49.4949 57.0614C49.3071 57.0848 49.174 57.2531 49.1975 57.4409C49.221 57.6287 49.3892 57.7657 49.577 57.7422Z" fill="#F77B5F"/>
<path d="M91.7251 77.1062C91.9246 75.8111 98.8815 76.6758 96.8977 78.55C94.914 80.4281 93.4036 87.698 91.5373 93.884C88.1293 105.164 84.7369 109.144 82.9371 109.918C80.9259 110.787 77.8662 109.809 77.827 106.546C77.7566 100.927 83.7118 93.2071 86.4937 88.7896C89.2757 84.3721 91.4747 78.7574 91.729 77.1023L91.7251 77.1062Z" fill="#FF9E7E"/>
<path d="M102.446 79.5663C102.383 79.5194 102.321 79.4646 102.258 79.4137C101.875 79.0968 100.239 77.9386 100.501 77.3948C100.677 77.023 101.311 77.1052 101.64 77.0778C102.18 77.0309 102.724 76.9604 103.248 76.8039C103.823 76.6318 104.128 75.9079 103.424 75.6418C103.193 75.5558 102.939 75.5636 102.692 75.5675C101.131 75.591 99.6325 75.1215 98.0831 75.1371C97.4257 75.1449 96.6549 75.2623 96.0132 75.4267C95.4381 75.5753 94.8433 75.8375 94.2368 75.7788C93.7908 75.7358 93.5247 75.6497 93.0669 75.8062C92.2453 76.0801 91.6388 76.6513 91.6153 77.563C91.584 78.6155 92.4605 79.4294 93.2039 80.0163C93.6225 80.345 93.9434 80.8184 94.3308 81.1862C94.7142 81.5501 95.1172 81.8866 95.5437 82.1957C95.7472 82.3405 95.9545 82.4852 96.1815 82.583C96.3928 82.673 96.6197 82.7239 96.8427 82.7748C97.9344 83.0213 100.27 83.6238 100.27 83.6238C100.27 83.6238 102.09 83.5338 103.123 83.3812C103.929 83.2599 104.786 83.1347 105.517 82.7591C105.717 82.6574 105.92 82.5244 106.018 82.317C106.112 82.1096 106.045 81.8161 105.83 81.7457C106.206 81.7731 106.582 81.8005 106.953 81.8279C107.039 81.8357 107.129 81.8396 107.211 81.8044C107.36 81.7379 107.411 81.5423 107.368 81.3857C107.325 81.2292 107.2 81.1079 107.078 81.0062C106.194 80.2706 104.977 80.1337 103.835 80.0163C103.459 79.9772 103.072 79.9341 102.735 79.7541C102.634 79.7033 102.544 79.6368 102.454 79.5702L102.446 79.5663Z" fill="#FF9E7E"/>
<path d="M95.1133 81.7193C95.0312 81.954 94.949 82.1966 94.8668 82.447L91.9949 79.5281L92.484 79.0469L95.1133 81.7193Z" fill="#F77B5F"/>
<path d="M77.4865 103.461L76.8057 103.382C76.9817 101.833 79.5328 98.0964 80.6636 96.5078C80.7614 96.7739 80.8593 97.0321 80.9532 97.2825C79.6111 99.2037 77.6234 102.263 77.4865 103.461Z" fill="#F77B5F"/>
<path d="M31.4141 51.8185L34.8103 45.9651L38.1009 50.2299C38.1009 50.2299 43.7548 37.5683 42.6084 33.2487C46.4664 39.1647 56.9251 34.133 59.3432 51.8342C61.1117 64.7619 60.8574 69.6763 60.7165 70.1458C60.7165 70.1458 60.7791 70.1536 60.9004 70.1732C60.9357 70.0753 60.967 69.9697 60.9983 69.868C62.5438 69.4728 64.3084 69.1559 65.9987 68.9954C67.0474 52.4954 65.674 28.2208 47.9102 27.2739C34.9707 26.5814 31.4571 38.9221 31.4141 51.8264V51.8185Z" fill="#212121"/>
<path d="M41.1723 60.008L36.5983 50.5314C36.0584 49.4084 35.7336 49.0797 34.505 49.2832L29.2268 50.1127C29.0389 50.144 28.2799 50.7192 28.3933 51.3922C28.3933 51.4 28.3973 51.4078 28.4012 51.4117L28.4364 51.4861L33.4016 61.8C33.5151 62.0348 33.7655 62.1639 34.0238 62.1248L40.7537 60.8727C41.1136 60.7827 41.3367 60.3445 41.1723 60.0041V60.008Z" fill="#5D87A2"/>
<path d="M40.9376 60.784C38.4804 55.4744 35.8588 49.8557 35.5888 49.6679C35.4715 49.5858 35.3345 49.4919 31.5509 50.1335C30.4123 50.3253 29.2776 50.5287 28.5772 50.6539C28.5537 50.6892 28.5303 50.7244 28.5107 50.7635C28.5107 50.7635 28.5107 50.7635 28.5107 50.7674C28.4911 50.8026 28.4755 50.8378 28.4598 50.877C28.4598 50.877 28.4598 50.8848 28.4559 50.8887C28.4403 50.9278 28.4246 50.967 28.4129 51.01C28.4011 51.053 28.3933 51.0961 28.3855 51.1391C30.964 50.6657 34.7437 50.024 35.3384 50.0514C35.7532 50.697 38.4295 56.433 40.5072 60.9131L40.7497 60.8662C40.8163 60.8505 40.8828 60.8192 40.9376 60.7801V60.784Z" fill="#74A7BD"/>
<path d="M34.1139 64.1597C34.0356 64.0658 30.4711 60.2587 29.7942 58.7758C29.1173 57.2929 30.3929 55.6065 30.3929 55.6065L31.2654 57.1207C31.2654 57.1207 31.7702 56.5886 33.6326 54.9413C35.4638 53.3175 36.8293 53.0906 36.8919 53.8105C36.9506 54.4953 35.0842 56.2482 34.063 57.4142C33.7422 57.7781 33.7617 58.1654 33.7617 58.1654C33.7617 58.1654 36.9702 55.4578 38.3944 55.0665C39.8187 54.6753 39.5995 56.2404 39.5995 56.2404C39.5995 56.2404 40.4525 56.1778 40.5582 56.8077C40.6638 57.4377 40.1669 58.0519 40.1669 58.0519C40.1669 58.0519 40.6677 58.2398 40.6912 59.0771C40.7147 59.9144 38.3514 62.8098 38.367 63.0094C38.3827 63.2129 39.7326 64.5158 39.353 65.2866C38.9735 66.0574 38.1557 67.4973 38.1557 67.4973L34.11 65.1927C34.11 65.1927 34.3056 64.3945 34.11 64.1597H34.1139Z" fill="#FF9E7E"/>
<path d="M34.0667 57.4184C34.7436 56.6437 35.7961 55.6107 36.4065 54.8047C34.6575 56.0489 33.1041 58.2244 33.0259 58.334L33.558 58.7135C33.558 58.7135 33.8789 58.2635 34.3679 57.6806C34.0002 57.9779 33.7615 58.1735 33.7615 58.1735C33.7615 58.1735 33.7419 57.7862 34.0628 57.4223L34.0667 57.4184Z" fill="#F77B5F"/>
<path d="M39.6072 56.2432C39.6072 56.2432 39.6502 55.9341 39.5759 55.625V55.7737C38.9147 56.2862 35.9449 58.63 34.728 60.1129L35.2328 60.5277C36.4027 59.0995 39.3959 56.744 39.9946 56.2745C39.7911 56.2276 39.6111 56.2393 39.6111 56.2393L39.6072 56.2432Z" fill="#F77B5F"/>
<path d="M30.9522 57.4977L31.3826 57.0086C31.3005 57.0908 31.2653 57.126 31.2653 57.126L30.9248 56.5391L30.4592 57.0712L30.9483 57.5016L30.9522 57.4977Z" fill="#F77B5F"/>
<path d="M40.4523 57.5664C39.7324 57.9655 37.8112 60.2584 36.6804 61.6552L37.1891 62.0661C38.4294 60.5323 39.8615 58.8889 40.4875 58.3333C40.3427 58.1181 40.1745 58.0555 40.1745 58.0555C40.1745 58.0555 40.3349 57.8559 40.4562 57.5664H40.4523Z" fill="#F77B5F"/>
<path d="M38.2654 67.6387C39.2201 66.6253 34.2039 61.6404 33.8713 64.4576C33.5349 67.2787 28.417 73.273 24.4299 78.8408C17.1522 88.9944 15.9393 94.3235 16.401 96.2721C16.9214 98.4515 19.6251 100.251 22.364 98.1345C27.0788 94.4918 29.8256 84.6473 31.7819 79.5177C33.7383 74.3881 37.0524 68.9338 38.2693 67.6387H38.2654Z" fill="#FF9E7E"/>
<path d="M24.2227 93.7359L24.5552 94.268C25.7604 93.505 27.8106 89.9327 28.6832 88.348L28.421 88.1211C27.3411 90.0188 25.1343 93.1568 24.2227 93.7359Z" fill="#F77B5F"/>
</g>
<defs>
<linearGradient id="paint0_linear_7832_38032" x1="40.6408" y1="28.4262" x2="39.7565" y2="87.7511" gradientUnits="userSpaceOnUse">
<stop stop-color="#C3D7D5"/>
<stop offset="1" stop-color="#F8FFFF"/>
</linearGradient>
<clipPath id="clip0_7832_38032">
<path d="M0 12C0 5.37259 5.37258 0 12 0H148C154.627 0 160 5.37258 160 12V108C160 114.627 154.627 120 148 120H12C5.37258 120 0 114.627 0 108V12Z" fill="white"/>
</clipPath>
</defs>
</svg>
